<?xml version="1.0" encoding="UTF-8"?>
<svg id="Layer_2" data-name="Layer 2" xmlns="http://www.w3.org/2000/svg" viewBox="0 0 926.45 149.82">
  <defs>
    <style>
      .cls-1 {
        fill: #ddd5cb;
      }
    </style>
  </defs>
  <g id="Layer_1-2" data-name="Layer 1">
    <g>
      <path class="cls-1" d="M53.45,149.82c-17.54,0-30.83-3.37-39.87-10.1-9.05-6.73-13.57-16.9-13.57-30.51,0-2.24.14-4.52.42-6.84.21-1.76.47-3.58.76-5.46.16-1.04,1.06-1.8,2.11-1.8h39.25c1.31,0,2.3,1.17,2.11,2.46-.13.88-.25,1.71-.36,2.49-.21,1.47-.32,2.84-.32,4.1,0,3.93.91,6.73,2.74,8.42,1.82,1.68,4.77,2.52,8.84,2.52,4.91,0,9.05-1.37,12.41-4.1,3.37-2.74,5.61-7.47,6.73-14.2L91.01,4.29c.18-1.02,1.07-1.77,2.1-1.77h42.16c1.33,0,2.33,1.2,2.1,2.51l-16.39,93.02c-2.1,12.35-6.14,22.3-12.1,29.88-5.96,7.57-13.61,13.12-22.94,16.62-9.33,3.5-20.17,5.26-32.51,5.26Z"/>
      <path class="cls-1" d="M216.94,149.82c-14.59,0-27.04-2.18-37.35-6.52-10.31-4.35-18.13-10.84-23.46-19.46-5.33-8.63-8-19.32-8-32.09,0-2.95.17-6,.53-9.15.35-3.16.81-6.42,1.37-9.78,2.8-15.99,7.85-29.39,15.15-40.19,7.29-10.8,17.04-18.94,29.25-24.41,12.2-5.47,27.07-8.21,44.61-8.21,14.73,0,27.25,2.18,37.56,6.52,10.31,4.35,18.13,10.87,23.46,19.57,5.33,8.7,8,19.57,8,32.61,0,2.81-.14,5.75-.42,8.84-.28,3.09-.7,6.24-1.26,9.47-2.81,15.99-7.96,29.39-15.47,40.19-7.51,10.8-17.4,18.94-29.67,24.41-12.28,5.47-27.04,8.21-44.29,8.21ZM220.93,115.1c5.05,0,9.64-.81,13.78-2.42,4.14-1.61,7.75-3.89,10.84-6.84,3.08-2.95,5.65-6.49,7.68-10.63,2.03-4.14,3.47-8.66,4.31-13.57.7-4.07,1.26-7.4,1.68-9.99.42-2.59.74-4.66.95-6.21.21-1.54.35-2.74.42-3.58.07-.84.1-1.61.1-2.31,0-5.05-.95-9.43-2.84-13.15-1.89-3.72-4.73-6.59-8.52-8.63-3.79-2.03-8.56-3.05-14.31-3.05-5.05,0-9.65.81-13.78,2.42-4.14,1.61-7.72,3.89-10.73,6.84-3.02,2.95-5.54,6.49-7.57,10.63-2.04,4.14-3.47,8.66-4.31,13.57-.7,4.21-1.26,7.61-1.68,10.21-.42,2.6-.74,4.67-.95,6.21-.21,1.55-.35,2.74-.42,3.58-.07.84-.1,1.61-.1,2.31,0,4.91.91,9.23,2.74,12.94,1.82,3.72,4.63,6.6,8.42,8.63,3.79,2.04,8.55,3.05,14.31,3.05Z"/>
      <path class="cls-1" d="M319.01,144.78L343.92,4.29c.18-1.02,1.07-1.76,2.1-1.76h42.16c1.33,0,2.34,1.2,2.1,2.51l-24.91,140.49c-.18,1.02-1.07,1.76-2.1,1.76h-42.16c-1.33,0-2.34-1.2-2.1-2.51Z"/>
      <path class="cls-1" d="M396.65,144.78L421.56,4.29c.18-1.02,1.07-1.76,2.1-1.76h36.18c.73,0,1.4.37,1.8.98l34.93,54.36c1.54,2.25,3.12,4.67,4.73,7.26,1.61,2.6,3.16,5.12,4.63,7.57,1.47,2.46,2.77,4.67,3.89,6.63l1.05-.42c.28-2.8.6-5.29.95-7.47.35-2.17.74-4.52,1.16-7.05l10.22-60.08c.17-1.03,1.06-1.78,2.11-1.78h38.15c1.33,0,2.34,1.2,2.1,2.51l-24.91,140.49c-.18,1.02-1.07,1.76-2.1,1.76h-35.99c-.72,0-1.39-.36-1.78-.96l-39.56-59.85c-1.26-1.96-2.74-4.35-4.42-7.15-1.68-2.8-3.16-5.33-4.42-7.57l-1.05.21c-.28,3.09-.67,6.03-1.16,8.84-.49,2.81-.88,4.91-1.16,6.31l-10.01,58.4c-.18,1.03-1.07,1.78-2.11,1.78h-38.15c-1.33,0-2.34-1.2-2.1-2.51Z"/>
      <path class="cls-1" d="M683.21,149.82c-20.06,0-35.84-4.03-47.34-12.1-11.5-8.06-17.25-20.16-17.25-36.3,0-2.1.1-4.28.32-6.52.21-2.24.53-4.56.95-6.94l14.84-83.66c.18-1.02,1.07-1.76,2.1-1.76h42.16c1.33,0,2.33,1.2,2.1,2.51l-14.71,83.34c-.14,1.12-.28,2.25-.42,3.37-.14,1.12-.21,2.25-.21,3.37,0,6.03,1.72,10.87,5.16,14.52,3.44,3.65,8.8,5.47,16.1,5.47,8.55,0,15.43-2.52,20.62-7.57,5.19-5.05,8.49-11.43,9.89-19.15l14.84-84.08c.18-1.02,1.07-1.77,2.1-1.77h42.16c1.33,0,2.33,1.2,2.1,2.51l-15.13,86.08c-2.25,13.05-6.88,23.92-13.89,32.61-7.02,8.7-16.1,15.22-27.25,19.57-11.15,4.35-24.23,6.52-39.24,6.52Z"/>
      <path class="cls-1" d="M851.75,149.82c-9.68,0-18.66-.6-26.93-1.79-8.28-1.19-15.47-3.19-21.57-6-6.1-2.8-10.87-6.73-14.31-11.78-3.44-5.05-5.16-11.36-5.16-18.94,0-1.96.11-4.1.32-6.42.15-1.69.4-3.33.74-4.91.22-1,1.08-1.72,2.1-1.72h39.3c1.38,0,2.34,1.28,2.05,2.63-.04.21-.08.42-.11.64-.14,1.05-.21,2.07-.21,3.05,0,3.23.91,5.72,2.74,7.47,1.82,1.76,4.35,2.95,7.57,3.58,3.23.63,6.87.95,10.94.95,2.1,0,4.42-.1,6.94-.32s4.94-.66,7.26-1.37c2.31-.7,4.21-1.79,5.68-3.26,1.47-1.47,2.21-3.47,2.21-6,0-2.24-.98-4.1-2.95-5.58-1.97-1.47-4.63-2.74-8-3.79s-7.15-2.03-11.36-2.95c-4.21-.91-8.56-1.93-13.05-3.05-4.91-1.26-9.78-2.77-14.62-4.52-4.84-1.75-9.19-4.03-13.05-6.84-3.86-2.8-6.94-6.35-9.26-10.63-2.31-4.28-3.47-9.5-3.47-15.68,0-9.68,2.03-17.85,6.1-24.51,4.07-6.66,9.47-12.06,16.2-16.2,6.73-4.14,14.24-7.15,22.51-9.05,8.27-1.89,16.62-2.84,25.04-2.84s16.76.74,24.2,2.21c7.43,1.47,13.89,3.75,19.36,6.84,5.47,3.09,9.75,6.98,12.83,11.68,3.08,4.7,4.63,10.28,4.63,16.73,0,1.12-.07,2.39-.21,3.79-.11,1.05-.29,2.41-.55,4.08-.16,1.04-1.06,1.81-2.11,1.81h-39.39c-1.2,0-2.14-.99-2.14-2.19,0,0,0,0,0-.01v-1.58c0-3.23-1.23-6-3.68-8.31-2.46-2.31-6.63-3.47-12.52-3.47-4.63,0-8.52.53-11.68,1.58-3.16,1.05-5.51,2.39-7.05,4-1.54,1.61-2.31,3.33-2.31,5.16s.56,3.37,1.68,4.63c1.12,1.26,2.74,2.42,4.84,3.47,2.1,1.05,4.59,1.97,7.47,2.74,2.87.77,6.07,1.51,9.57,2.21,5.47,1.12,11.26,2.49,17.36,4.1,6.1,1.61,11.82,3.82,17.15,6.63,5.33,2.81,9.64,6.49,12.94,11.05,3.29,4.56,4.94,10.35,4.94,17.36,0,9.12-1.86,17.15-5.58,24.09-3.72,6.94-8.8,12.73-15.25,17.36-6.45,4.63-13.82,8.1-22.09,10.42-8.28,2.31-16.97,3.47-26.09,3.47Z"/>
    </g>
  </g>
</svg>