<svg width="61" height="19" viewBox="0 0 61 19" fill="none" xmlns="http://www.w3.org/2000/svg">
<g clip-path="url(#clip0_148_2)">
<path d="M0 10.2843V14.7709C0 15.1982 0.179345 15.6079 0.49846 15.91C2.58849 17.8884 5.42295 19 8.37864 19H59.2947C60.8111 19 61.5701 17.2648 60.498 16.2495C58.126 14.0041 54.9088 12.7427 51.5543 12.7427H42.9092C42.6096 12.7427 42.3155 12.6678 42.0565 12.526L19.4334 0.128029C18.5908 -0.333858 17.638 0.542021 18.1004 1.35293L23.1356 10.1824C23.7477 11.2555 22.9267 12.5587 21.6377 12.5587H7.77949C7.37521 12.5587 6.98445 12.4226 6.67686 12.1751L2.8049 9.05754C1.69977 8.16744 0.000500965 8.91101 0.000500965 10.2848L0 10.2843Z" fill="#DDD5CB"/>
</g>
<defs>
<clipPath id="clip0_148_2">
<rect width="61" height="19" fill="white"/>
</clipPath>
</defs>
</svg>
